<?xml version="1.0" encoding="UTF-8"?>
<svg id="Layer_2" data-name="Layer 2" xmlns="http://www.w3.org/2000/svg" viewBox="0 0 200 200">
  <defs>
    <style>
      .cls-1 {
        fill: #fff;
      }

      .cls-2 {
        fill: #abc766;
      }

      .cls-3 {
        fill: none;
        opacity: .5;
      }
    </style>
  </defs>
  <g id="Layer_1-2" data-name="Layer 1">
    <rect class="cls-2" width="200" height="200"/>
  </g>
  <g id="SHAPE-01">
    <g class="cls-3">
      <circle class="cls-1" cx="108.05" cy="100" r="30.32"/>
      <g>
        <path class="cls-1" d="m158.36,139.21c-2.59-2.59-6.76-2.49-9.35.1-.02.02-.03.03-.05.05-22.58,22.58-59.72,21.71-81.18-2.61-18.32-20.76-18.38-52.54-.13-73.37,19.54-22.29,52.21-25.02,74.97-8.19,3.48,2.57,8.29,2.31,11.35-.75h0c3.75-3.75,3.26-9.95-1.01-13.11-29.18-21.64-70.84-18.71-96.63,8.79-25.39,27.06-26.24,69.69-1.88,97.67,28.07,32.23,77.02,33.5,106.72,3.79.08-.08.15-.15.23-.23,2.51-2.54,2.44-6.65-.08-9.17l-2.98-2.98Z"/>
        <rect class="cls-1" x="109.09" y="120.95" width="54.96" height="17.06" transform="translate(131.55 -58.64) rotate(45)"/>
      </g>
    </g>
  </g>
</svg>